<svg width="400" height="200" viewBox="0 0 400 200" xmlns="http://www.w3.org/2000/svg">
  <!-- Background -->
  <rect width="400" height="200" fill="#f0f9ff" />
  
  <!-- House outline -->
  <path d="M100,150 L100,80 L200,30 L300,80 L300,150 Z" fill="#ffffff" stroke="#0070f3" stroke-width="3" />
  
  <!-- Door -->
  <rect x="175" y="110" width="50" height="40" fill="#0070f3" />
  
  <!-- Windows -->
  <rect x="130" y="90" width="30" height="30" fill="#e6f0fd" stroke="#0070f3" stroke-width="2" />
  <rect x="240" y="90" width="30" height="30" fill="#e6f0fd" stroke="#0070f3" stroke-width="2" />
  
  <!-- Energy efficiency symbol -->
  <circle cx="320" cy="50" r="25" fill="#ffffff" stroke="#0070f3" stroke-width="2" />
  <path d="M310,40 L320,60 L330,40 L310,40" fill="#0070f3" />
  <path d="M310,60 L330,60" stroke="#0070f3" stroke-width="2" stroke-linecap="round" />
  
  <!-- Sun rays -->
  <circle cx="80" cy="50" r="15" fill="#ffdd00" />
  <line x1="80" y1="20" x2="80" y2="30" stroke="#ffdd00" stroke-width="2" />
  <line x1="80" y1="70" x2="80" y2="80" stroke="#ffdd00" stroke-width="2" />
  <line x1="50" y1="50" x2="60" y2="50" stroke="#ffdd00" stroke-width="2" />
  <line x1="100" y1="50" x2="110" y2="50" stroke="#ffdd00" stroke-width="2" />
  <line x1="60" y1="30" x2="67" y2="37" stroke="#ffdd00" stroke-width="2" />
  <line x1="93" y1="63" x2="100" y2="70" stroke="#ffdd00" stroke-width="2" />
  <line x1="60" y1="70" x2="67" y2="63" stroke="#ffdd00" stroke-width="2" />
  <line x1="93" y1="37" x2="100" y2="30" stroke="#ffdd00" stroke-width="2" />
</svg>