<svg width="400" height="400" viewBox="0 0 400 400" fill="none" xmlns="http://www.w3.org/2000/svg">
  <!-- Building Base -->
  <rect x="100" y="150" width="200" height="200" fill="#E0E0E0" stroke="#0070F3" stroke-width="4"/>
  
  <!-- Windows -->
  <rect x="120" y="180" width="40" height="40" fill="#FFFFFF" stroke="#0070F3" stroke-width="2"/>
  <rect x="180" y="180" width="40" height="40" fill="#FFFFFF" stroke="#0070F3" stroke-width="2"/>
  <rect x="240" y="180" width="40" height="40" fill="#FFFFFF" stroke="#0070F3" stroke-width="2"/>
  
  <rect x="120" y="240" width="40" height="40" fill="#FFFFFF" stroke="#0070F3" stroke-width="2"/>
  <rect x="180" y="240" width="40" height="40" fill="#FFFFFF" stroke="#0070F3" stroke-width="2"/>
  <rect x="240" y="240" width="40" height="40" fill="#FFFFFF" stroke="#0070F3" stroke-width="2"/>
  
  <!-- Door -->
  <rect x="180" y="300" width="40" height="50" fill="#0070F3" stroke="#0070F3" stroke-width="2"/>
  <circle cx="190" cy="325" r="3" fill="#FFFFFF"/>
  
  <!-- Roof -->
  <polygon points="80,150 200,80 320,150" fill="#0070F3" stroke="#0070F3" stroke-width="4"/>
  
  <!-- Chimney -->
  <rect x="260" y="100" width="20" height="40" fill="#E0E0E0" stroke="#0070F3" stroke-width="2"/>
  
  <!-- Lego Block Pattern -->
  <g opacity="0.2">
    <rect x="100" y="170" width="20" height="10" fill="#0070F3"/>
    <rect x="120" y="170" width="20" height="10" fill="#0070F3"/>
    <rect x="140" y="170" width="20" height="10" fill="#0070F3"/>
    <rect x="160" y="170" width="20" height="10" fill="#0070F3"/>
    <rect x="180" y="170" width="20" height="10" fill="#0070F3"/>
    <rect x="200" y="170" width="20" height="10" fill="#0070F3"/>
    <rect x="220" y="170" width="20" height="10" fill="#0070F3"/>
    <rect x="240" y="170" width="20" height="10" fill="#0070F3"/>
    <rect x="260" y="170" width="20" height="10" fill="#0070F3"/>
    <rect x="280" y="170" width="20" height="10" fill="#0070F3"/>
    
    <rect x="100" y="230" width="20" height="10" fill="#0070F3"/>
    <rect x="120" y="230" width="20" height="10" fill="#0070F3"/>
    <rect x="140" y="230" width="20" height="10" fill="#0070F3"/>
    <rect x="160" y="230" width="20" height="10" fill="#0070F3"/>
    <rect x="180" y="230" width="20" height="10" fill="#0070F3"/>
    <rect x="200" y="230" width="20" height="10" fill="#0070F3"/>
    <rect x="220" y="230" width="20" height="10" fill="#0070F3"/>
    <rect x="240" y="230" width="20" height="10" fill="#0070F3"/>
    <rect x="260" y="230" width="20" height="10" fill="#0070F3"/>
    <rect x="280" y="230" width="20" height="10" fill="#0070F3"/>
    
    <rect x="100" y="290" width="20" height="10" fill="#0070F3"/>
    <rect x="120" y="290" width="20" height="10" fill="#0070F3"/>
    <rect x="140" y="290" width="20" height="10" fill="#0070F3"/>
    <rect x="160" y="290" width="20" height="10" fill="#0070F3"/>
    <rect x="180" y="290" width="20" height="10" fill="#0070F3"/>
    <rect x="200" y="290" width="20" height="10" fill="#0070F3"/>
    <rect x="220" y="290" width="20" height="10" fill="#0070F3"/>
    <rect x="240" y="290" width="20" height="10" fill="#0070F3"/>
    <rect x="260" y="290" width="20" height="10" fill="#0070F3"/>
    <rect x="280" y="290" width="20" height="10" fill="#0070F3"/>
  </g>
  
  <!-- Energy Efficiency Symbol -->
  <circle cx="320" cy="80" r="30" fill="#FFFFFF" stroke="#0070F3" stroke-width="2"/>
  <text x="320" y="85" font-family="Arial" font-size="24" fill="#0070F3" text-anchor="middle">A+</text>
  
  <!-- Lego Block Icon -->
  <g transform="translate(50, 80)">
    <rect x="0" y="0" width="40" height="20" rx="2" fill="#0070F3"/>
    <circle cx="10" cy="0" r="5" fill="#0070F3"/>
    <circle cx="30" cy="0" r="5" fill="#0070F3"/>
  </g>
</svg>